<svg xmlns="http://www.w3.org/2000/svg"  viewBox="0 0 30 30" width="90px" height="90px" fill="#C1C1C1"><path d="M 6 4 C 4.895 4 4 4.895 4 6 L 4 24 C 4 25.105 4.895 26 6 26 L 24 26 C 25.105 26 26 25.105 26 24 L 26 6 C 26 4.895 25.105 4 24 4 L 6 4 z M 11.496094 10.255859 C 13.396094 10.255859 14.769703 11.345391 14.845703 12.900391 L 13.296875 12.900391 C 13.183875 12.104391 12.481234 11.603516 11.490234 11.603516 C 10.449234 11.603516 9.7597656 12.105953 9.7597656 12.876953 C 9.7597656 13.484953 10.217844 13.842609 11.339844 14.099609 L 12.380859 14.337891 C 14.218859 14.751891 14.990234 15.516484 14.990234 16.896484 C 14.989234 18.659484 13.627594 19.755859 11.433594 19.755859 C 9.3575937 19.755859 7.9843438 18.715266 7.9023438 17.072266 L 9.484375 17.072266 C 9.584375 17.881266 10.386156 18.402344 11.535156 18.402344 C 12.600156 18.402344 13.371094 17.856656 13.371094 17.097656 C 13.371094 16.445656 12.876797 16.062969 11.716797 15.792969 L 10.544922 15.523438 C 8.9009219 15.153438 8.1289063 14.336281 8.1289062 12.988281 C 8.1289062 11.345281 9.4710938 10.255859 11.496094 10.255859 z M 19.349609 12.53125 C 21.111609 12.53125 22.103516 13.390703 22.103516 14.845703 L 22.103516 19.53125 L 22.101562 19.53125 L 20.603516 19.53125 L 20.603516 18.589844 L 20.496094 18.589844 C 20.113094 19.254844 19.360844 19.644531 18.464844 19.644531 C 17.141844 19.644531 16.193359 18.841891 16.193359 17.587891 C 16.193359 16.345891 17.128875 15.629297 18.796875 15.529297 L 20.566406 15.423828 L 20.566406 14.845703 C 20.566406 14.174703 20.115391 13.798828 19.275391 13.798828 C 18.559391 13.798828 18.070781 14.049672 17.925781 14.513672 L 16.457031 14.513672 C 16.583031 13.303672 17.718609 12.53125 19.349609 12.53125 z M 20.564453 16.470703 L 19.015625 16.570312 C 18.144625 16.626313 17.736328 16.940047 17.736328 17.498047 C 17.736328 18.075047 18.231875 18.421875 18.921875 18.421875 C 19.861875 18.421875 20.564453 17.812625 20.564453 17.015625 L 20.564453 16.470703 z"/></svg>